<mxfile host="app.diagrams.net" agent="Mozilla/5.0 (Windows NT 10.0; Win64; x64) AppleWebKit/537.36 (KHTML, like Gecko) Chrome/130.0.0.0 Safari/537.36 OPR/115.0.0.0" version="26.0.10">
  <diagram name="Página-1" id="utGpeQ4UjbV8BRvyn9GN">
    <mxGraphModel dx="1421" dy="1425" grid="1" gridSize="10" guides="1" tooltips="1" connect="1" arrows="1" fold="1" page="1" pageScale="1" pageWidth="827" pageHeight="1169" math="0" shadow="0">
      <root>
        <mxCell id="0" />
        <mxCell id="1" parent="0" />
        <mxCell id="vF0f2Q07C2wqnqUUGuEn-7" value="PERSONAGEM" style="swimlane;whiteSpace=wrap;html=1;sketch=1;hachureGap=4;jiggle=2;curveFitting=1;fontFamily=Architects Daughter;fontSource=https%3A%2F%2Ffonts.googleapis.com%2Fcss%3Ffamily%3DArchitects%2BDaughter;" parent="1" vertex="1">
          <mxGeometry x="310" y="180" width="200" height="290" as="geometry" />
        </mxCell>
        <mxCell id="vF0f2Q07C2wqnqUUGuEn-8" value="Pontos de Vida" style="text;html=1;align=center;verticalAlign=middle;resizable=0;points=[];autosize=1;strokeColor=none;fillColor=none;fontFamily=Architects Daughter;fontSource=https%3A%2F%2Ffonts.googleapis.com%2Fcss%3Ffamily%3DArchitects%2BDaughter;" parent="vF0f2Q07C2wqnqUUGuEn-7" vertex="1">
          <mxGeometry x="10" y="30" width="110" height="30" as="geometry" />
        </mxCell>
        <mxCell id="vF0f2Q07C2wqnqUUGuEn-9" value="Mana" style="text;html=1;align=center;verticalAlign=middle;resizable=0;points=[];autosize=1;strokeColor=none;fillColor=none;fontFamily=Architects Daughter;fontSource=https%3A%2F%2Ffonts.googleapis.com%2Fcss%3Ffamily%3DArchitects%2BDaughter;" parent="vF0f2Q07C2wqnqUUGuEn-7" vertex="1">
          <mxGeometry x="10" y="60" width="50" height="30" as="geometry" />
        </mxCell>
        <mxCell id="vF0f2Q07C2wqnqUUGuEn-10" value="classe" style="text;html=1;align=center;verticalAlign=middle;resizable=0;points=[];autosize=1;strokeColor=none;fillColor=none;fontFamily=Architects Daughter;fontSource=https%3A%2F%2Ffonts.googleapis.com%2Fcss%3Ffamily%3DArchitects%2BDaughter;" parent="vF0f2Q07C2wqnqUUGuEn-7" vertex="1">
          <mxGeometry x="5" y="90" width="60" height="30" as="geometry" />
        </mxCell>
        <mxCell id="vF0f2Q07C2wqnqUUGuEn-11" value="Nome" style="text;html=1;align=center;verticalAlign=middle;resizable=0;points=[];autosize=1;strokeColor=none;fillColor=none;fontFamily=Architects Daughter;fontSource=https%3A%2F%2Ffonts.googleapis.com%2Fcss%3Ffamily%3DArchitects%2BDaughter;" parent="vF0f2Q07C2wqnqUUGuEn-7" vertex="1">
          <mxGeometry x="10" y="120" width="50" height="30" as="geometry" />
        </mxCell>
        <mxCell id="vF0f2Q07C2wqnqUUGuEn-12" value="Origem" style="text;html=1;align=center;verticalAlign=middle;resizable=0;points=[];autosize=1;strokeColor=none;fillColor=none;fontFamily=Architects Daughter;fontSource=https%3A%2F%2Ffonts.googleapis.com%2Fcss%3Ffamily%3DArchitects%2BDaughter;" parent="vF0f2Q07C2wqnqUUGuEn-7" vertex="1">
          <mxGeometry x="10" y="150" width="60" height="30" as="geometry" />
        </mxCell>
        <mxCell id="vF0f2Q07C2wqnqUUGuEn-21" value="Ataque" style="text;html=1;align=center;verticalAlign=middle;resizable=0;points=[];autosize=1;strokeColor=none;fillColor=none;fontFamily=Architects Daughter;fontSource=https%3A%2F%2Ffonts.googleapis.com%2Fcss%3Ffamily%3DArchitects%2BDaughter;" parent="vF0f2Q07C2wqnqUUGuEn-7" vertex="1">
          <mxGeometry x="10" y="180" width="60" height="30" as="geometry" />
        </mxCell>
        <mxCell id="vF0f2Q07C2wqnqUUGuEn-22" value="Velocidade" style="text;html=1;align=center;verticalAlign=middle;resizable=0;points=[];autosize=1;strokeColor=none;fillColor=none;fontFamily=Architects Daughter;fontSource=https%3A%2F%2Ffonts.googleapis.com%2Fcss%3Ffamily%3DArchitects%2BDaughter;" parent="vF0f2Q07C2wqnqUUGuEn-7" vertex="1">
          <mxGeometry y="210" width="80" height="30" as="geometry" />
        </mxCell>
        <mxCell id="vF0f2Q07C2wqnqUUGuEn-23" value="Defesa" style="text;html=1;align=center;verticalAlign=middle;resizable=0;points=[];autosize=1;strokeColor=none;fillColor=none;fontFamily=Architects Daughter;fontSource=https%3A%2F%2Ffonts.googleapis.com%2Fcss%3Ffamily%3DArchitects%2BDaughter;" parent="vF0f2Q07C2wqnqUUGuEn-7" vertex="1">
          <mxGeometry x="10" y="240" width="60" height="30" as="geometry" />
        </mxCell>
        <mxCell id="vF0f2Q07C2wqnqUUGuEn-24" value="inteligência" style="text;html=1;align=center;verticalAlign=middle;resizable=0;points=[];autosize=1;strokeColor=none;fillColor=none;fontFamily=Architects Daughter;fontSource=https%3A%2F%2Ffonts.googleapis.com%2Fcss%3Ffamily%3DArchitects%2BDaughter;" parent="vF0f2Q07C2wqnqUUGuEn-7" vertex="1">
          <mxGeometry x="70" y="60" width="80" height="30" as="geometry" />
        </mxCell>
        <mxCell id="vF0f2Q07C2wqnqUUGuEn-25" value="Destreza" style="text;html=1;align=center;verticalAlign=middle;resizable=0;points=[];autosize=1;strokeColor=none;fillColor=none;fontFamily=Architects Daughter;fontSource=https%3A%2F%2Ffonts.googleapis.com%2Fcss%3Ffamily%3DArchitects%2BDaughter;" parent="vF0f2Q07C2wqnqUUGuEn-7" vertex="1">
          <mxGeometry x="75" y="90" width="70" height="30" as="geometry" />
        </mxCell>
        <mxCell id="vF0f2Q07C2wqnqUUGuEn-26" value="Tipo de Arma" style="text;html=1;align=center;verticalAlign=middle;resizable=0;points=[];autosize=1;strokeColor=none;fillColor=none;fontFamily=Architects Daughter;fontSource=https%3A%2F%2Ffonts.googleapis.com%2Fcss%3Ffamily%3DArchitects%2BDaughter;" parent="vF0f2Q07C2wqnqUUGuEn-7" vertex="1">
          <mxGeometry x="75" y="120" width="100" height="30" as="geometry" />
        </mxCell>
        <mxCell id="vF0f2Q07C2wqnqUUGuEn-44" value="Tipo de Arm,adura" style="text;html=1;align=center;verticalAlign=middle;resizable=0;points=[];autosize=1;strokeColor=none;fillColor=none;fontFamily=Architects Daughter;fontSource=https%3A%2F%2Ffonts.googleapis.com%2Fcss%3Ffamily%3DArchitects%2BDaughter;" parent="vF0f2Q07C2wqnqUUGuEn-7" vertex="1">
          <mxGeometry x="60" y="160" width="130" height="30" as="geometry" />
        </mxCell>
        <mxCell id="vF0f2Q07C2wqnqUUGuEn-49" value="Alcance" style="text;html=1;align=center;verticalAlign=middle;resizable=0;points=[];autosize=1;strokeColor=none;fillColor=none;fontFamily=Architects Daughter;fontSource=https%3A%2F%2Ffonts.googleapis.com%2Fcss%3Ffamily%3DArchitects%2BDaughter;" parent="vF0f2Q07C2wqnqUUGuEn-7" vertex="1">
          <mxGeometry x="85" y="190" width="70" height="30" as="geometry" />
        </mxCell>
        <mxCell id="vF0f2Q07C2wqnqUUGuEn-57" value="Nivel" style="text;html=1;align=center;verticalAlign=middle;resizable=0;points=[];autosize=1;strokeColor=none;fillColor=none;fontFamily=Architects Daughter;fontSource=https%3A%2F%2Ffonts.googleapis.com%2Fcss%3Ffamily%3DArchitects%2BDaughter;" parent="vF0f2Q07C2wqnqUUGuEn-7" vertex="1">
          <mxGeometry x="85" y="220" width="50" height="30" as="geometry" />
        </mxCell>
        <mxCell id="vF0f2Q07C2wqnqUUGuEn-13" value="" style="rounded=0;whiteSpace=wrap;html=1;sketch=1;hachureGap=4;jiggle=2;curveFitting=1;fontFamily=Architects Daughter;fontSource=https%3A%2F%2Ffonts.googleapis.com%2Fcss%3Ffamily%3DArchitects%2BDaughter;" parent="1" vertex="1">
          <mxGeometry x="300" y="470" width="200" height="410" as="geometry" />
        </mxCell>
        <mxCell id="vF0f2Q07C2wqnqUUGuEn-14" value="Atacar()" style="text;html=1;align=center;verticalAlign=middle;whiteSpace=wrap;rounded=0;fontFamily=Architects Daughter;fontSource=https%3A%2F%2Ffonts.googleapis.com%2Fcss%3Ffamily%3DArchitects%2BDaughter;" parent="1" vertex="1">
          <mxGeometry x="320" y="480" width="60" height="30" as="geometry" />
        </mxCell>
        <mxCell id="vF0f2Q07C2wqnqUUGuEn-15" value="Andar()" style="text;html=1;align=center;verticalAlign=middle;whiteSpace=wrap;rounded=0;fontFamily=Architects Daughter;fontSource=https%3A%2F%2Ffonts.googleapis.com%2Fcss%3Ffamily%3DArchitects%2BDaughter;" parent="1" vertex="1">
          <mxGeometry x="320" y="505" width="60" height="30" as="geometry" />
        </mxCell>
        <mxCell id="vF0f2Q07C2wqnqUUGuEn-16" value="Correr()&lt;span style=&quot;color: rgba(0, 0, 0, 0); font-family: monospace; font-size: 0px; text-align: start; text-wrap-mode: nowrap;&quot;&gt;%3CmxGraphModel%3E%3Croot%3E%3CmxCell%20id%3D%220%22%2F%3E%3CmxCell%20id%3D%221%22%20parent%3D%220%22%2F%3E%3CmxCell%20id%3D%222%22%20value%3D%22Andar()%22%20style%3D%22text%3Bhtml%3D1%3Balign%3Dcenter%3BverticalAlign%3Dmiddle%3BwhiteSpace%3Dwrap%3Brounded%3D0%3BfontFamily%3DArchitects%20Daughter%3BfontSource%3Dhttps%253A%252F%252Ffonts.googleapis.com%252Fcss%253Ffamily%253DArchitects%252BDaughter%3B%22%20vertex%3D%221%22%20parent%3D%221%22%3E%3CmxGeometry%20x%3D%22320%22%20y%3D%22415%22%20width%3D%2260%22%20height%3D%2230%22%20as%3D%22geometry%22%2F%3E%3C%2FmxCell%3E%3C%2Froot%3E%3C%2FmxGraphModel%3E&lt;/span&gt;" style="text;html=1;align=center;verticalAlign=middle;whiteSpace=wrap;rounded=0;fontFamily=Architects Daughter;fontSource=https%3A%2F%2Ffonts.googleapis.com%2Fcss%3Ffamily%3DArchitects%2BDaughter;" parent="1" vertex="1">
          <mxGeometry x="320" y="530" width="60" height="30" as="geometry" />
        </mxCell>
        <mxCell id="vF0f2Q07C2wqnqUUGuEn-17" value="Pular()" style="text;html=1;align=center;verticalAlign=middle;whiteSpace=wrap;rounded=0;fontFamily=Architects Daughter;fontSource=https%3A%2F%2Ffonts.googleapis.com%2Fcss%3Ffamily%3DArchitects%2BDaughter;" parent="1" vertex="1">
          <mxGeometry x="320" y="560" width="60" height="30" as="geometry" />
        </mxCell>
        <mxCell id="vF0f2Q07C2wqnqUUGuEn-18" value="Agachar()" style="text;html=1;align=center;verticalAlign=middle;whiteSpace=wrap;rounded=0;fontFamily=Architects Daughter;fontSource=https%3A%2F%2Ffonts.googleapis.com%2Fcss%3Ffamily%3DArchitects%2BDaughter;" parent="1" vertex="1">
          <mxGeometry x="320" y="590" width="60" height="30" as="geometry" />
        </mxCell>
        <mxCell id="vF0f2Q07C2wqnqUUGuEn-19" value="Defender()" style="text;html=1;align=center;verticalAlign=middle;whiteSpace=wrap;rounded=0;fontFamily=Architects Daughter;fontSource=https%3A%2F%2Ffonts.googleapis.com%2Fcss%3Ffamily%3DArchitects%2BDaughter;" parent="1" vertex="1">
          <mxGeometry x="320" y="620" width="60" height="30" as="geometry" />
        </mxCell>
        <mxCell id="vF0f2Q07C2wqnqUUGuEn-20" value="Bradar()" style="text;html=1;align=center;verticalAlign=middle;whiteSpace=wrap;rounded=0;fontFamily=Architects Daughter;fontSource=https%3A%2F%2Ffonts.googleapis.com%2Fcss%3Ffamily%3DArchitects%2BDaughter;" parent="1" vertex="1">
          <mxGeometry x="320" y="645" width="60" height="30" as="geometry" />
        </mxCell>
        <mxCell id="vF0f2Q07C2wqnqUUGuEn-32" value="Necromancer" style="swimlane;whiteSpace=wrap;html=1;sketch=1;hachureGap=4;jiggle=2;curveFitting=1;fontFamily=Architects Daughter;fontSource=https%3A%2F%2Ffonts.googleapis.com%2Fcss%3Ffamily%3DArchitects%2BDaughter;startSize=23;" parent="1" vertex="1">
          <mxGeometry x="-260" y="320" width="200" height="400" as="geometry" />
        </mxCell>
        <mxCell id="vF0f2Q07C2wqnqUUGuEn-47" value="Trevas&lt;span style=&quot;color: rgba(0, 0, 0, 0); font-family: monospace; font-size: 0px; text-align: start; text-wrap-mode: nowrap;&quot;&gt;%3CmxGraphModel%3E%3Croot%3E%3CmxCell%20id%3D%220%22%2F%3E%3CmxCell%20id%3D%221%22%20parent%3D%220%22%2F%3E%3CmxCell%20id%3D%222%22%20value%3D%22Magia%26lt%3Bspan%20style%3D%26quot%3Bcolor%3A%20rgba(0%2C%200%2C%200%2C%200)%3B%20font-family%3A%20monospace%3B%20font-size%3A%200px%3B%20text-align%3A%20start%3B%20text-wrap-mode%3A%20nowrap%3B%26quot%3B%26gt%3B%253CmxGraphModel%253E%253Croot%253E%253CmxCell%2520id%253D%25220%2522%252F%253E%253CmxCell%2520id%253D%25221%2522%2520parent%253D%25220%2522%252F%253E%253CmxCell%2520id%253D%25222%2522%2520value%253D%2522Tipo%2520de%2520Arma%2522%2520style%253D%2522text%253Bhtml%253D1%253Balign%253Dcenter%253BverticalAlign%253Dmiddle%253Bresizable%253D0%253Bpoints%253D%255B%255D%253Bautosize%253D1%253BstrokeColor%253Dnone%253BfillColor%253Dnone%253BfontFamily%253DArchitects%2520Daughter%253BfontSource%253Dhttps%25253A%25252F%25252Ffonts.googleapis.com%25252Fcss%25253Ffamily%25253DArchitects%25252BDaughter%253B%2522%2520vertex%253D%25221%2522%2520parent%253D%25221%2522%253E%253CmxGeometry%2520x%253D%2522370%2522%2520y%253D%2522300%2522%2520width%253D%2522100%2522%2520height%253D%252230%2522%2520as%253D%2522geometry%2522%252F%253E%253C%252FmxCell%253E%253C%252Froot%253E%253C%252FmxGraphModel%253E%26lt%3B%2Fspan%26gt%3B%22%20style%3D%22text%3Bhtml%3D1%3Balign%3Dcenter%3BverticalAlign%3Dmiddle%3BwhiteSpace%3Dwrap%3Brounded%3D0%3BfontFamily%3DArchitects%20Daughter%3BfontSource%3Dhttps%253A%252F%252Ffonts.googleapis.com%252Fcss%253Ffamily%253DArchitects%252BDaughter%3B%22%20vertex%3D%221%22%20parent%3D%221%22%3E%3CmxGeometry%20x%3D%22-30%22%20y%3D%22280%22%20width%3D%2260%22%20height%3D%2230%22%20as%3D%22geometry%22%2F%3E%3C%2FmxCell%3E%3C%2Froot%3E%3C%2FmxGraphModel%3E&lt;/span&gt;" style="text;html=1;align=center;verticalAlign=middle;whiteSpace=wrap;rounded=0;fontFamily=Architects Daughter;fontSource=https%3A%2F%2Ffonts.googleapis.com%2Fcss%3Ffamily%3DArchitects%2BDaughter;" parent="vF0f2Q07C2wqnqUUGuEn-32" vertex="1">
          <mxGeometry x="10" y="40" width="60" height="30" as="geometry" />
        </mxCell>
        <mxCell id="vF0f2Q07C2wqnqUUGuEn-48" value="Invocação" style="text;html=1;align=center;verticalAlign=middle;whiteSpace=wrap;rounded=0;fontFamily=Architects Daughter;fontSource=https%3A%2F%2Ffonts.googleapis.com%2Fcss%3Ffamily%3DArchitects%2BDaughter;" parent="vF0f2Q07C2wqnqUUGuEn-32" vertex="1">
          <mxGeometry x="10" y="70" width="60" height="30" as="geometry" />
        </mxCell>
        <mxCell id="119XGTAIvBOGyteVcQkZ-8" value="" style="swimlane;startSize=0;sketch=1;hachureGap=4;jiggle=2;curveFitting=1;fontFamily=Architects Daughter;fontSource=https%3A%2F%2Ffonts.googleapis.com%2Fcss%3Ffamily%3DArchitects%2BDaughter;" parent="vF0f2Q07C2wqnqUUGuEn-32" vertex="1">
          <mxGeometry y="200" width="200" height="200" as="geometry" />
        </mxCell>
        <mxCell id="119XGTAIvBOGyteVcQkZ-9" value="InvocarTrevas()" style="text;html=1;align=center;verticalAlign=middle;resizable=0;points=[];autosize=1;strokeColor=none;fillColor=none;fontFamily=Architects Daughter;fontSource=https%3A%2F%2Ffonts.googleapis.com%2Fcss%3Ffamily%3DArchitects%2BDaughter;" parent="119XGTAIvBOGyteVcQkZ-8" vertex="1">
          <mxGeometry y="15" width="110" height="30" as="geometry" />
        </mxCell>
        <mxCell id="119XGTAIvBOGyteVcQkZ-10" value="InvocarMobs()" style="text;html=1;align=center;verticalAlign=middle;resizable=0;points=[];autosize=1;strokeColor=none;fillColor=none;fontFamily=Architects Daughter;fontSource=https%3A%2F%2Ffonts.googleapis.com%2Fcss%3Ffamily%3DArchitects%2BDaughter;" parent="119XGTAIvBOGyteVcQkZ-8" vertex="1">
          <mxGeometry x="5" y="50" width="100" height="30" as="geometry" />
        </mxCell>
        <mxCell id="119XGTAIvBOGyteVcQkZ-11" value="TrocaCorporal()" style="text;html=1;align=center;verticalAlign=middle;resizable=0;points=[];autosize=1;strokeColor=none;fillColor=none;fontFamily=Architects Daughter;fontSource=https%3A%2F%2Ffonts.googleapis.com%2Fcss%3Ffamily%3DArchitects%2BDaughter;" parent="119XGTAIvBOGyteVcQkZ-8" vertex="1">
          <mxGeometry y="85" width="120" height="30" as="geometry" />
        </mxCell>
        <mxCell id="119XGTAIvBOGyteVcQkZ-12" value="CarregarTrevas()" style="text;html=1;align=center;verticalAlign=middle;resizable=0;points=[];autosize=1;strokeColor=none;fillColor=none;fontFamily=Architects Daughter;fontSource=https%3A%2F%2Ffonts.googleapis.com%2Fcss%3Ffamily%3DArchitects%2BDaughter;" parent="119XGTAIvBOGyteVcQkZ-8" vertex="1">
          <mxGeometry y="115" width="120" height="30" as="geometry" />
        </mxCell>
        <mxCell id="vF0f2Q07C2wqnqUUGuEn-37" value="Mago" style="swimlane;whiteSpace=wrap;html=1;sketch=1;hachureGap=4;jiggle=2;curveFitting=1;fontFamily=Architects Daughter;fontSource=https%3A%2F%2Ffonts.googleapis.com%2Fcss%3Ffamily%3DArchitects%2BDaughter;" parent="1" vertex="1">
          <mxGeometry x="-40" y="-90" width="200" height="170" as="geometry" />
        </mxCell>
        <mxCell id="vF0f2Q07C2wqnqUUGuEn-45" value="Magia&lt;span style=&quot;color: rgba(0, 0, 0, 0); font-family: monospace; font-size: 0px; text-align: start; text-wrap-mode: nowrap;&quot;&gt;%3CmxGraphModel%3E%3Croot%3E%3CmxCell%20id%3D%220%22%2F%3E%3CmxCell%20id%3D%221%22%20parent%3D%220%22%2F%3E%3CmxCell%20id%3D%222%22%20value%3D%22Tipo%20de%20Arma%22%20style%3D%22text%3Bhtml%3D1%3Balign%3Dcenter%3BverticalAlign%3Dmiddle%3Bresizable%3D0%3Bpoints%3D%5B%5D%3Bautosize%3D1%3BstrokeColor%3Dnone%3BfillColor%3Dnone%3BfontFamily%3DArchitects%20Daughter%3BfontSource%3Dhttps%253A%252F%252Ffonts.googleapis.com%252Fcss%253Ffamily%253DArchitects%252BDaughter%3B%22%20vertex%3D%221%22%20parent%3D%221%22%3E%3CmxGeometry%20x%3D%22370%22%20y%3D%22300%22%20width%3D%22100%22%20height%3D%2230%22%20as%3D%22geometry%22%2F%3E%3C%2FmxCell%3E%3C%2Froot%3E%3C%2FmxGraphModel%3E&lt;/span&gt;" style="text;html=1;align=center;verticalAlign=middle;whiteSpace=wrap;rounded=0;fontFamily=Architects Daughter;fontSource=https%3A%2F%2Ffonts.googleapis.com%2Fcss%3Ffamily%3DArchitects%2BDaughter;" parent="vF0f2Q07C2wqnqUUGuEn-37" vertex="1">
          <mxGeometry x="10" y="40" width="60" height="30" as="geometry" />
        </mxCell>
        <mxCell id="vF0f2Q07C2wqnqUUGuEn-38" value="Assasino" style="swimlane;whiteSpace=wrap;html=1;sketch=1;hachureGap=4;jiggle=2;curveFitting=1;fontFamily=Architects Daughter;fontSource=https%3A%2F%2Ffonts.googleapis.com%2Fcss%3Ffamily%3DArchitects%2BDaughter;" parent="1" vertex="1">
          <mxGeometry x="-40" y="700" width="200" height="200" as="geometry" />
        </mxCell>
        <mxCell id="vF0f2Q07C2wqnqUUGuEn-53" value="Furtividade" style="text;html=1;align=center;verticalAlign=middle;whiteSpace=wrap;rounded=0;fontFamily=Architects Daughter;fontSource=https%3A%2F%2Ffonts.googleapis.com%2Fcss%3Ffamily%3DArchitects%2BDaughter;" parent="vF0f2Q07C2wqnqUUGuEn-38" vertex="1">
          <mxGeometry x="10" y="40" width="60" height="30" as="geometry" />
        </mxCell>
        <mxCell id="vF0f2Q07C2wqnqUUGuEn-56" value="Camuflagem" style="text;html=1;align=center;verticalAlign=middle;whiteSpace=wrap;rounded=0;fontFamily=Architects Daughter;fontSource=https%3A%2F%2Ffonts.googleapis.com%2Fcss%3Ffamily%3DArchitects%2BDaughter;" parent="vF0f2Q07C2wqnqUUGuEn-38" vertex="1">
          <mxGeometry x="10" y="70" width="60" height="30" as="geometry" />
        </mxCell>
        <mxCell id="vF0f2Q07C2wqnqUUGuEn-58" value="Insanidade" style="text;html=1;align=center;verticalAlign=middle;whiteSpace=wrap;rounded=0;fontFamily=Architects Daughter;fontSource=https%3A%2F%2Ffonts.googleapis.com%2Fcss%3Ffamily%3DArchitects%2BDaughter;" parent="vF0f2Q07C2wqnqUUGuEn-38" vertex="1">
          <mxGeometry x="10" y="100" width="60" height="30" as="geometry" />
        </mxCell>
        <mxCell id="vF0f2Q07C2wqnqUUGuEn-39" value="Ninja" style="swimlane;whiteSpace=wrap;html=1;sketch=1;hachureGap=4;jiggle=2;curveFitting=1;fontFamily=Architects Daughter;fontSource=https%3A%2F%2Ffonts.googleapis.com%2Fcss%3Ffamily%3DArchitects%2BDaughter;" parent="1" vertex="1">
          <mxGeometry x="280" y="1030" width="200" height="400" as="geometry" />
        </mxCell>
        <mxCell id="vF0f2Q07C2wqnqUUGuEn-54" value="Furtividade" style="text;html=1;align=center;verticalAlign=middle;whiteSpace=wrap;rounded=0;fontFamily=Architects Daughter;fontSource=https%3A%2F%2Ffonts.googleapis.com%2Fcss%3Ffamily%3DArchitects%2BDaughter;" parent="vF0f2Q07C2wqnqUUGuEn-39" vertex="1">
          <mxGeometry x="5" y="30" width="60" height="30" as="geometry" />
        </mxCell>
        <mxCell id="119XGTAIvBOGyteVcQkZ-18" value="" style="swimlane;startSize=0;sketch=1;hachureGap=4;jiggle=2;curveFitting=1;fontFamily=Architects Daughter;fontSource=https%3A%2F%2Ffonts.googleapis.com%2Fcss%3Ffamily%3DArchitects%2BDaughter;" parent="vF0f2Q07C2wqnqUUGuEn-39" vertex="1">
          <mxGeometry y="200" width="200" height="200" as="geometry" />
        </mxCell>
        <mxCell id="119XGTAIvBOGyteVcQkZ-19" value="Escalar()" style="text;html=1;align=center;verticalAlign=middle;resizable=0;points=[];autosize=1;strokeColor=none;fillColor=none;fontFamily=Architects Daughter;fontSource=https%3A%2F%2Ffonts.googleapis.com%2Fcss%3Ffamily%3DArchitects%2BDaughter;" parent="119XGTAIvBOGyteVcQkZ-18" vertex="1">
          <mxGeometry x="10" y="20" width="70" height="30" as="geometry" />
        </mxCell>
        <mxCell id="119XGTAIvBOGyteVcQkZ-26" value="Invisibilidade()" style="text;html=1;align=center;verticalAlign=middle;resizable=0;points=[];autosize=1;strokeColor=none;fillColor=none;fontFamily=Architects Daughter;fontSource=https%3A%2F%2Ffonts.googleapis.com%2Fcss%3Ffamily%3DArchitects%2BDaughter;" parent="119XGTAIvBOGyteVcQkZ-18" vertex="1">
          <mxGeometry x="5" y="50" width="90" height="30" as="geometry" />
        </mxCell>
        <mxCell id="119XGTAIvBOGyteVcQkZ-27" value="PassoSilencioso()" style="text;html=1;align=center;verticalAlign=middle;resizable=0;points=[];autosize=1;strokeColor=none;fillColor=none;fontFamily=Architects Daughter;fontSource=https%3A%2F%2Ffonts.googleapis.com%2Fcss%3Ffamily%3DArchitects%2BDaughter;" parent="119XGTAIvBOGyteVcQkZ-18" vertex="1">
          <mxGeometry x="-5" y="85" width="120" height="30" as="geometry" />
        </mxCell>
        <mxCell id="vF0f2Q07C2wqnqUUGuEn-40" value="Arqueiro" style="swimlane;whiteSpace=wrap;html=1;sketch=1;hachureGap=4;jiggle=2;curveFitting=1;fontFamily=Architects Daughter;fontSource=https%3A%2F%2Ffonts.googleapis.com%2Fcss%3Ffamily%3DArchitects%2BDaughter;" parent="1" vertex="1">
          <mxGeometry x="320" y="-240" width="200" height="200" as="geometry" />
        </mxCell>
        <mxCell id="vF0f2Q07C2wqnqUUGuEn-65" value="Visão estratégica" style="text;html=1;align=center;verticalAlign=middle;resizable=0;points=[];autosize=1;strokeColor=none;fillColor=none;fontFamily=Architects Daughter;fontSource=https%3A%2F%2Ffonts.googleapis.com%2Fcss%3Ffamily%3DArchitects%2BDaughter;" parent="vF0f2Q07C2wqnqUUGuEn-40" vertex="1">
          <mxGeometry y="40" width="120" height="30" as="geometry" />
        </mxCell>
        <mxCell id="119XGTAIvBOGyteVcQkZ-39" value="" style="swimlane;startSize=0;sketch=1;hachureGap=4;jiggle=2;curveFitting=1;fontFamily=Architects Daughter;fontSource=https%3A%2F%2Ffonts.googleapis.com%2Fcss%3Ffamily%3DArchitects%2BDaughter;" parent="vF0f2Q07C2wqnqUUGuEn-40" vertex="1">
          <mxGeometry y="200" width="200" height="120" as="geometry" />
        </mxCell>
        <mxCell id="119XGTAIvBOGyteVcQkZ-40" value="Atirar()" style="text;html=1;align=center;verticalAlign=middle;resizable=0;points=[];autosize=1;strokeColor=none;fillColor=none;fontFamily=Architects Daughter;fontSource=https%3A%2F%2Ffonts.googleapis.com%2Fcss%3Ffamily%3DArchitects%2BDaughter;" parent="119XGTAIvBOGyteVcQkZ-39" vertex="1">
          <mxGeometry y="20" width="70" height="30" as="geometry" />
        </mxCell>
        <mxCell id="119XGTAIvBOGyteVcQkZ-41" value="Rolar()" style="text;html=1;align=center;verticalAlign=middle;resizable=0;points=[];autosize=1;strokeColor=none;fillColor=none;fontFamily=Architects Daughter;fontSource=https%3A%2F%2Ffonts.googleapis.com%2Fcss%3Ffamily%3DArchitects%2BDaughter;" parent="119XGTAIvBOGyteVcQkZ-39" vertex="1">
          <mxGeometry x="5" y="45" width="60" height="30" as="geometry" />
        </mxCell>
        <mxCell id="119XGTAIvBOGyteVcQkZ-42" value="AtivarVisao()" style="text;html=1;align=center;verticalAlign=middle;resizable=0;points=[];autosize=1;strokeColor=none;fillColor=none;fontFamily=Architects Daughter;fontSource=https%3A%2F%2Ffonts.googleapis.com%2Fcss%3Ffamily%3DArchitects%2BDaughter;" parent="119XGTAIvBOGyteVcQkZ-39" vertex="1">
          <mxGeometry y="75" width="90" height="30" as="geometry" />
        </mxCell>
        <mxCell id="vF0f2Q07C2wqnqUUGuEn-41" value="Curandeiro" style="swimlane;whiteSpace=wrap;html=1;sketch=1;hachureGap=4;jiggle=2;curveFitting=1;fontFamily=Architects Daughter;fontSource=https%3A%2F%2Ffonts.googleapis.com%2Fcss%3Ffamily%3DArchitects%2BDaughter;" parent="1" vertex="1">
          <mxGeometry x="660" y="-90" width="200" height="200" as="geometry" />
        </mxCell>
        <mxCell id="vF0f2Q07C2wqnqUUGuEn-59" value="Cura" style="text;html=1;align=center;verticalAlign=middle;whiteSpace=wrap;rounded=0;fontFamily=Architects Daughter;fontSource=https%3A%2F%2Ffonts.googleapis.com%2Fcss%3Ffamily%3DArchitects%2BDaughter;" parent="vF0f2Q07C2wqnqUUGuEn-41" vertex="1">
          <mxGeometry x="10" y="40" width="60" height="30" as="geometry" />
        </mxCell>
        <mxCell id="vF0f2Q07C2wqnqUUGuEn-42" value="Guerreiro" style="swimlane;whiteSpace=wrap;html=1;sketch=1;hachureGap=4;jiggle=2;curveFitting=1;fontFamily=Architects Daughter;fontSource=https%3A%2F%2Ffonts.googleapis.com%2Fcss%3Ffamily%3DArchitects%2BDaughter;" parent="1" vertex="1">
          <mxGeometry x="680" y="285" width="225" height="200" as="geometry" />
        </mxCell>
        <mxCell id="vF0f2Q07C2wqnqUUGuEn-67" value="Agressividade" style="text;html=1;align=center;verticalAlign=middle;resizable=0;points=[];autosize=1;strokeColor=none;fillColor=none;fontFamily=Architects Daughter;fontSource=https%3A%2F%2Ffonts.googleapis.com%2Fcss%3Ffamily%3DArchitects%2BDaughter;" parent="vF0f2Q07C2wqnqUUGuEn-42" vertex="1">
          <mxGeometry y="40" width="100" height="30" as="geometry" />
        </mxCell>
        <mxCell id="vF0f2Q07C2wqnqUUGuEn-68" value="Fúria" style="text;html=1;align=center;verticalAlign=middle;resizable=0;points=[];autosize=1;strokeColor=none;fillColor=none;fontFamily=Architects Daughter;fontSource=https%3A%2F%2Ffonts.googleapis.com%2Fcss%3Ffamily%3DArchitects%2BDaughter;" parent="vF0f2Q07C2wqnqUUGuEn-42" vertex="1">
          <mxGeometry y="70" width="50" height="30" as="geometry" />
        </mxCell>
        <mxCell id="vF0f2Q07C2wqnqUUGuEn-77" value="Força" style="text;html=1;align=center;verticalAlign=middle;resizable=0;points=[];autosize=1;strokeColor=none;fillColor=none;fontFamily=Architects Daughter;fontSource=https%3A%2F%2Ffonts.googleapis.com%2Fcss%3Ffamily%3DArchitects%2BDaughter;" parent="vF0f2Q07C2wqnqUUGuEn-42" vertex="1">
          <mxGeometry y="100" width="60" height="30" as="geometry" />
        </mxCell>
        <mxCell id="vF0f2Q07C2wqnqUUGuEn-43" value="Paladino" style="swimlane;whiteSpace=wrap;html=1;sketch=1;hachureGap=4;jiggle=2;curveFitting=1;fontFamily=Architects Daughter;fontSource=https%3A%2F%2Ffonts.googleapis.com%2Fcss%3Ffamily%3DArchitects%2BDaughter;" parent="1" vertex="1">
          <mxGeometry x="640" y="670" width="200" height="200" as="geometry" />
        </mxCell>
        <mxCell id="vF0f2Q07C2wqnqUUGuEn-70" value="Agressividade" style="text;html=1;align=center;verticalAlign=middle;resizable=0;points=[];autosize=1;strokeColor=none;fillColor=none;fontFamily=Architects Daughter;fontSource=https%3A%2F%2Ffonts.googleapis.com%2Fcss%3Ffamily%3DArchitects%2BDaughter;" parent="vF0f2Q07C2wqnqUUGuEn-43" vertex="1">
          <mxGeometry x="10" y="40" width="100" height="30" as="geometry" />
        </mxCell>
        <mxCell id="vF0f2Q07C2wqnqUUGuEn-71" value="Fé" style="text;html=1;align=center;verticalAlign=middle;resizable=0;points=[];autosize=1;strokeColor=none;fillColor=none;fontFamily=Architects Daughter;fontSource=https%3A%2F%2Ffonts.googleapis.com%2Fcss%3Ffamily%3DArchitects%2BDaughter;" parent="vF0f2Q07C2wqnqUUGuEn-43" vertex="1">
          <mxGeometry x="10" y="70" width="40" height="30" as="geometry" />
        </mxCell>
        <mxCell id="vF0f2Q07C2wqnqUUGuEn-76" value="Devoção" style="text;html=1;align=center;verticalAlign=middle;resizable=0;points=[];autosize=1;strokeColor=none;fillColor=none;fontFamily=Architects Daughter;fontSource=https%3A%2F%2Ffonts.googleapis.com%2Fcss%3Ffamily%3DArchitects%2BDaughter;" parent="vF0f2Q07C2wqnqUUGuEn-43" vertex="1">
          <mxGeometry x="10" y="100" width="70" height="30" as="geometry" />
        </mxCell>
        <mxCell id="vF0f2Q07C2wqnqUUGuEn-80" value="" style="endArrow=classic;html=1;rounded=0;sketch=1;hachureGap=4;jiggle=2;curveFitting=1;fontFamily=Architects Daughter;fontSource=https%3A%2F%2Ffonts.googleapis.com%2Fcss%3Ffamily%3DArchitects%2BDaughter;entryX=0;entryY=0.5;entryDx=0;entryDy=0;exitX=1;exitY=0.25;exitDx=0;exitDy=0;" parent="1" source="vF0f2Q07C2wqnqUUGuEn-32" target="vF0f2Q07C2wqnqUUGuEn-7" edge="1">
          <mxGeometry width="50" height="50" relative="1" as="geometry">
            <mxPoint x="160" y="365" as="sourcePoint" />
            <mxPoint x="210" y="315" as="targetPoint" />
            <Array as="points" />
          </mxGeometry>
        </mxCell>
        <mxCell id="vF0f2Q07C2wqnqUUGuEn-83" value="" style="endArrow=classic;html=1;rounded=0;sketch=1;hachureGap=4;jiggle=2;curveFitting=1;fontFamily=Architects Daughter;fontSource=https%3A%2F%2Ffonts.googleapis.com%2Fcss%3Ffamily%3DArchitects%2BDaughter;entryX=-0.004;entryY=0.381;entryDx=0;entryDy=0;entryPerimeter=0;exitX=1;exitY=0;exitDx=0;exitDy=0;" parent="1" source="vF0f2Q07C2wqnqUUGuEn-38" target="vF0f2Q07C2wqnqUUGuEn-13" edge="1">
          <mxGeometry width="50" height="50" relative="1" as="geometry">
            <mxPoint x="160" y="675" as="sourcePoint" />
            <mxPoint x="210" y="625" as="targetPoint" />
          </mxGeometry>
        </mxCell>
        <mxCell id="vF0f2Q07C2wqnqUUGuEn-85" value="" style="endArrow=classic;html=1;rounded=0;sketch=1;hachureGap=4;jiggle=2;curveFitting=1;fontFamily=Architects Daughter;fontSource=https%3A%2F%2Ffonts.googleapis.com%2Fcss%3Ffamily%3DArchitects%2BDaughter;entryX=1.019;entryY=0.542;entryDx=0;entryDy=0;entryPerimeter=0;exitX=0;exitY=0;exitDx=0;exitDy=0;" parent="1" source="vF0f2Q07C2wqnqUUGuEn-43" target="vF0f2Q07C2wqnqUUGuEn-13" edge="1">
          <mxGeometry width="50" height="50" relative="1" as="geometry">
            <mxPoint x="650" y="640" as="sourcePoint" />
            <mxPoint x="640" y="590" as="targetPoint" />
          </mxGeometry>
        </mxCell>
        <mxCell id="vF0f2Q07C2wqnqUUGuEn-86" value="" style="endArrow=classic;html=1;rounded=0;sketch=1;hachureGap=4;jiggle=2;curveFitting=1;fontFamily=Architects Daughter;fontSource=https%3A%2F%2Ffonts.googleapis.com%2Fcss%3Ffamily%3DArchitects%2BDaughter;exitX=-0.041;exitY=0.418;exitDx=0;exitDy=0;exitPerimeter=0;entryX=1;entryY=0.5;entryDx=0;entryDy=0;" parent="1" source="vF0f2Q07C2wqnqUUGuEn-77" target="vF0f2Q07C2wqnqUUGuEn-7" edge="1">
          <mxGeometry width="50" height="50" relative="1" as="geometry">
            <mxPoint x="550" y="350" as="sourcePoint" />
            <mxPoint x="600" y="300" as="targetPoint" />
          </mxGeometry>
        </mxCell>
        <mxCell id="vF0f2Q07C2wqnqUUGuEn-87" value="" style="endArrow=classic;html=1;rounded=0;sketch=1;hachureGap=4;jiggle=2;curveFitting=1;fontFamily=Architects Daughter;fontSource=https%3A%2F%2Ffonts.googleapis.com%2Fcss%3Ffamily%3DArchitects%2BDaughter;entryX=0;entryY=0;entryDx=0;entryDy=0;" parent="1" target="vF0f2Q07C2wqnqUUGuEn-7" edge="1">
          <mxGeometry width="50" height="50" relative="1" as="geometry">
            <mxPoint x="160" y="40" as="sourcePoint" />
            <mxPoint x="210" y="-10" as="targetPoint" />
          </mxGeometry>
        </mxCell>
        <mxCell id="vF0f2Q07C2wqnqUUGuEn-89" value="" style="endArrow=classic;html=1;rounded=0;sketch=1;hachureGap=4;jiggle=2;curveFitting=1;fontFamily=Architects Daughter;fontSource=https%3A%2F%2Ffonts.googleapis.com%2Fcss%3Ffamily%3DArchitects%2BDaughter;entryX=1.014;entryY=0.072;entryDx=0;entryDy=0;entryPerimeter=0;" parent="1" target="vF0f2Q07C2wqnqUUGuEn-7" edge="1">
          <mxGeometry width="50" height="50" relative="1" as="geometry">
            <mxPoint x="660" y="40" as="sourcePoint" />
            <mxPoint x="630" y="90" as="targetPoint" />
          </mxGeometry>
        </mxCell>
        <mxCell id="119XGTAIvBOGyteVcQkZ-3" value="" style="swimlane;startSize=0;sketch=1;hachureGap=4;jiggle=2;curveFitting=1;fontFamily=Architects Daughter;fontSource=https%3A%2F%2Ffonts.googleapis.com%2Fcss%3Ffamily%3DArchitects%2BDaughter;" parent="1" vertex="1">
          <mxGeometry x="-40" y="80" width="200" height="200" as="geometry" />
        </mxCell>
        <mxCell id="119XGTAIvBOGyteVcQkZ-4" value="DIspararHabilidade()" style="text;html=1;align=center;verticalAlign=middle;resizable=0;points=[];autosize=1;strokeColor=none;fillColor=none;fontFamily=Architects Daughter;fontSource=https%3A%2F%2Ffonts.googleapis.com%2Fcss%3Ffamily%3DArchitects%2BDaughter;" parent="119XGTAIvBOGyteVcQkZ-3" vertex="1">
          <mxGeometry x="-5" y="20" width="130" height="30" as="geometry" />
        </mxCell>
        <mxCell id="119XGTAIvBOGyteVcQkZ-5" value="Levitar()" style="text;html=1;align=center;verticalAlign=middle;resizable=0;points=[];autosize=1;strokeColor=none;fillColor=none;fontFamily=Architects Daughter;fontSource=https%3A%2F%2Ffonts.googleapis.com%2Fcss%3Ffamily%3DArchitects%2BDaughter;" parent="119XGTAIvBOGyteVcQkZ-3" vertex="1">
          <mxGeometry y="50" width="70" height="30" as="geometry" />
        </mxCell>
        <mxCell id="119XGTAIvBOGyteVcQkZ-6" value="Teletransportar()" style="text;html=1;align=center;verticalAlign=middle;resizable=0;points=[];autosize=1;strokeColor=none;fillColor=none;fontFamily=Architects Daughter;fontSource=https%3A%2F%2Ffonts.googleapis.com%2Fcss%3Ffamily%3DArchitects%2BDaughter;" parent="119XGTAIvBOGyteVcQkZ-3" vertex="1">
          <mxGeometry x="-5" y="80" width="120" height="30" as="geometry" />
        </mxCell>
        <mxCell id="119XGTAIvBOGyteVcQkZ-7" value="CarregarMana()" style="text;html=1;align=center;verticalAlign=middle;resizable=0;points=[];autosize=1;strokeColor=none;fillColor=none;fontFamily=Architects Daughter;fontSource=https%3A%2F%2Ffonts.googleapis.com%2Fcss%3Ffamily%3DArchitects%2BDaughter;" parent="119XGTAIvBOGyteVcQkZ-3" vertex="1">
          <mxGeometry x="-5" y="110" width="110" height="30" as="geometry" />
        </mxCell>
        <mxCell id="119XGTAIvBOGyteVcQkZ-13" value="" style="swimlane;startSize=0;sketch=1;hachureGap=4;jiggle=2;curveFitting=1;fontFamily=Architects Daughter;fontSource=https%3A%2F%2Ffonts.googleapis.com%2Fcss%3Ffamily%3DArchitects%2BDaughter;" parent="1" vertex="1">
          <mxGeometry x="-40" y="900" width="200" height="200" as="geometry" />
        </mxCell>
        <mxCell id="119XGTAIvBOGyteVcQkZ-14" value="Assasinar()" style="text;html=1;align=center;verticalAlign=middle;resizable=0;points=[];autosize=1;strokeColor=none;fillColor=none;fontFamily=Architects Daughter;fontSource=https%3A%2F%2Ffonts.googleapis.com%2Fcss%3Ffamily%3DArchitects%2BDaughter;" parent="119XGTAIvBOGyteVcQkZ-13" vertex="1">
          <mxGeometry y="20" width="80" height="30" as="geometry" />
        </mxCell>
        <mxCell id="119XGTAIvBOGyteVcQkZ-16" value="Camuflagem()" style="text;html=1;align=center;verticalAlign=middle;resizable=0;points=[];autosize=1;strokeColor=none;fillColor=none;fontFamily=Architects Daughter;fontSource=https%3A%2F%2Ffonts.googleapis.com%2Fcss%3Ffamily%3DArchitects%2BDaughter;" parent="119XGTAIvBOGyteVcQkZ-13" vertex="1">
          <mxGeometry x="-10" y="60" width="100" height="30" as="geometry" />
        </mxCell>
        <mxCell id="119XGTAIvBOGyteVcQkZ-17" value="AtivarInsanidade()" style="text;html=1;align=center;verticalAlign=middle;resizable=0;points=[];autosize=1;strokeColor=none;fillColor=none;fontFamily=Architects Daughter;fontSource=https%3A%2F%2Ffonts.googleapis.com%2Fcss%3Ffamily%3DArchitects%2BDaughter;" parent="119XGTAIvBOGyteVcQkZ-13" vertex="1">
          <mxGeometry x="-10" y="100" width="120" height="30" as="geometry" />
        </mxCell>
        <mxCell id="119XGTAIvBOGyteVcQkZ-15" value="TrocaCorporal()" style="text;html=1;align=center;verticalAlign=middle;resizable=0;points=[];autosize=1;strokeColor=none;fillColor=none;fontFamily=Architects Daughter;fontSource=https%3A%2F%2Ffonts.googleapis.com%2Fcss%3Ffamily%3DArchitects%2BDaughter;" parent="1" vertex="1">
          <mxGeometry x="-240" y="625" width="120" height="30" as="geometry" />
        </mxCell>
        <mxCell id="119XGTAIvBOGyteVcQkZ-28" value="" style="swimlane;startSize=0;sketch=1;hachureGap=4;jiggle=2;curveFitting=1;fontFamily=Architects Daughter;fontSource=https%3A%2F%2Ffonts.googleapis.com%2Fcss%3Ffamily%3DArchitects%2BDaughter;" parent="1" vertex="1">
          <mxGeometry x="640" y="870" width="200" height="200" as="geometry" />
        </mxCell>
        <mxCell id="119XGTAIvBOGyteVcQkZ-29" value="Oracao()" style="text;html=1;align=center;verticalAlign=middle;resizable=0;points=[];autosize=1;strokeColor=none;fillColor=none;fontFamily=Architects Daughter;fontSource=https%3A%2F%2Ffonts.googleapis.com%2Fcss%3Ffamily%3DArchitects%2BDaughter;" parent="119XGTAIvBOGyteVcQkZ-28" vertex="1">
          <mxGeometry x="10" y="20" width="70" height="30" as="geometry" />
        </mxCell>
        <mxCell id="119XGTAIvBOGyteVcQkZ-30" value="Defender()" style="text;html=1;align=center;verticalAlign=middle;resizable=0;points=[];autosize=1;strokeColor=none;fillColor=none;fontFamily=Architects Daughter;fontSource=https%3A%2F%2Ffonts.googleapis.com%2Fcss%3Ffamily%3DArchitects%2BDaughter;" parent="119XGTAIvBOGyteVcQkZ-28" vertex="1">
          <mxGeometry x="5" y="50" width="80" height="30" as="geometry" />
        </mxCell>
        <mxCell id="119XGTAIvBOGyteVcQkZ-31" value="Defender()" style="text;html=1;align=center;verticalAlign=middle;resizable=0;points=[];autosize=1;strokeColor=none;fillColor=none;fontFamily=Architects Daughter;fontSource=https%3A%2F%2Ffonts.googleapis.com%2Fcss%3Ffamily%3DArchitects%2BDaughter;" parent="119XGTAIvBOGyteVcQkZ-28" vertex="1">
          <mxGeometry x="5" y="85" width="80" height="30" as="geometry" />
        </mxCell>
        <mxCell id="119XGTAIvBOGyteVcQkZ-32" value="" style="swimlane;startSize=0;sketch=1;hachureGap=4;jiggle=2;curveFitting=1;fontFamily=Architects Daughter;fontSource=https%3A%2F%2Ffonts.googleapis.com%2Fcss%3Ffamily%3DArchitects%2BDaughter;" parent="1" vertex="1">
          <mxGeometry x="680" y="485" width="230" height="115" as="geometry" />
        </mxCell>
        <mxCell id="119XGTAIvBOGyteVcQkZ-33" value="AtivarFuria()" style="text;html=1;align=center;verticalAlign=middle;resizable=0;points=[];autosize=1;strokeColor=none;fillColor=none;fontFamily=Architects Daughter;fontSource=https%3A%2F%2Ffonts.googleapis.com%2Fcss%3Ffamily%3DArchitects%2BDaughter;" parent="119XGTAIvBOGyteVcQkZ-32" vertex="1">
          <mxGeometry x="5" y="15" width="90" height="30" as="geometry" />
        </mxCell>
        <mxCell id="119XGTAIvBOGyteVcQkZ-34" value="ModoBatalha()" style="text;html=1;align=center;verticalAlign=middle;resizable=0;points=[];autosize=1;strokeColor=none;fillColor=none;fontFamily=Architects Daughter;fontSource=https%3A%2F%2Ffonts.googleapis.com%2Fcss%3Ffamily%3DArchitects%2BDaughter;" parent="119XGTAIvBOGyteVcQkZ-32" vertex="1">
          <mxGeometry x="5" y="42.5" width="100" height="30" as="geometry" />
        </mxCell>
        <mxCell id="119XGTAIvBOGyteVcQkZ-35" value="" style="swimlane;startSize=0;sketch=1;hachureGap=4;jiggle=2;curveFitting=1;fontFamily=Architects Daughter;fontSource=https%3A%2F%2Ffonts.googleapis.com%2Fcss%3Ffamily%3DArchitects%2BDaughter;" parent="1" vertex="1">
          <mxGeometry x="660" y="110" width="200" height="130" as="geometry" />
        </mxCell>
        <mxCell id="119XGTAIvBOGyteVcQkZ-37" value="apllicarBuff()" style="text;html=1;align=center;verticalAlign=middle;resizable=0;points=[];autosize=1;strokeColor=none;fillColor=none;fontFamily=Architects Daughter;fontSource=https%3A%2F%2Ffonts.googleapis.com%2Fcss%3Ffamily%3DArchitects%2BDaughter;" parent="119XGTAIvBOGyteVcQkZ-35" vertex="1">
          <mxGeometry x="-5" y="38" width="100" height="30" as="geometry" />
        </mxCell>
        <mxCell id="119XGTAIvBOGyteVcQkZ-38" value="ressuscitar()" style="text;html=1;align=center;verticalAlign=middle;resizable=0;points=[];autosize=1;strokeColor=none;fillColor=none;fontFamily=Architects Daughter;fontSource=https%3A%2F%2Ffonts.googleapis.com%2Fcss%3Ffamily%3DArchitects%2BDaughter;" parent="119XGTAIvBOGyteVcQkZ-35" vertex="1">
          <mxGeometry y="70" width="100" height="30" as="geometry" />
        </mxCell>
        <mxCell id="119XGTAIvBOGyteVcQkZ-36" value="Curar()" style="text;html=1;align=center;verticalAlign=middle;resizable=0;points=[];autosize=1;strokeColor=none;fillColor=none;fontFamily=Architects Daughter;fontSource=https%3A%2F%2Ffonts.googleapis.com%2Fcss%3Ffamily%3DArchitects%2BDaughter;" parent="1" vertex="1">
          <mxGeometry x="655" y="118" width="70" height="30" as="geometry" />
        </mxCell>
        <mxCell id="119XGTAIvBOGyteVcQkZ-45" value="" style="endArrow=classic;html=1;rounded=0;sketch=1;hachureGap=4;jiggle=2;curveFitting=1;fontFamily=Architects Daughter;fontSource=https%3A%2F%2Ffonts.googleapis.com%2Fcss%3Ffamily%3DArchitects%2BDaughter;entryX=0.586;entryY=-0.015;entryDx=0;entryDy=0;entryPerimeter=0;exitX=0.5;exitY=1;exitDx=0;exitDy=0;" parent="1" source="119XGTAIvBOGyteVcQkZ-39" target="vF0f2Q07C2wqnqUUGuEn-7" edge="1">
          <mxGeometry width="50" height="50" relative="1" as="geometry">
            <mxPoint x="385" y="148" as="sourcePoint" />
            <mxPoint x="435" y="98" as="targetPoint" />
          </mxGeometry>
        </mxCell>
        <mxCell id="gnvX_Jzxml1_0VbC4K96-1" value="completarMissao()" style="text;html=1;align=center;verticalAlign=middle;whiteSpace=wrap;rounded=0;fontFamily=Architects Daughter;fontSource=https%3A%2F%2Ffonts.googleapis.com%2Fcss%3Ffamily%3DArchitects%2BDaughter;" vertex="1" parent="1">
          <mxGeometry x="340" y="670" width="60" height="30" as="geometry" />
        </mxCell>
        <mxCell id="gnvX_Jzxml1_0VbC4K96-2" value="subirNivel()" style="text;html=1;align=center;verticalAlign=middle;whiteSpace=wrap;rounded=0;fontFamily=Architects Daughter;fontSource=https%3A%2F%2Ffonts.googleapis.com%2Fcss%3Ffamily%3DArchitects%2BDaughter;" vertex="1" parent="1">
          <mxGeometry x="320" y="700" width="60" height="30" as="geometry" />
        </mxCell>
        <mxCell id="gnvX_Jzxml1_0VbC4K96-3" value="modificarMana()" style="text;html=1;align=center;verticalAlign=middle;whiteSpace=wrap;rounded=0;fontFamily=Architects Daughter;fontSource=https%3A%2F%2Ffonts.googleapis.com%2Fcss%3Ffamily%3DArchitects%2BDaughter;" vertex="1" parent="1">
          <mxGeometry x="330" y="720" width="60" height="35" as="geometry" />
        </mxCell>
        <mxCell id="gnvX_Jzxml1_0VbC4K96-4" value="modificarHP()" style="text;html=1;align=center;verticalAlign=middle;whiteSpace=wrap;rounded=0;fontFamily=Architects Daughter;fontSource=https%3A%2F%2Ffonts.googleapis.com%2Fcss%3Ffamily%3DArchitects%2BDaughter;" vertex="1" parent="1">
          <mxGeometry x="330" y="750" width="60" height="30" as="geometry" />
        </mxCell>
        <mxCell id="gnvX_Jzxml1_0VbC4K96-5" value="modificarAtaque()" style="text;html=1;align=center;verticalAlign=middle;whiteSpace=wrap;rounded=0;fontFamily=Architects Daughter;fontSource=https%3A%2F%2Ffonts.googleapis.com%2Fcss%3Ffamily%3DArchitects%2BDaughter;" vertex="1" parent="1">
          <mxGeometry x="340" y="780" width="60" height="20" as="geometry" />
        </mxCell>
        <mxCell id="gnvX_Jzxml1_0VbC4K96-6" value="modificarDefesa()" style="text;html=1;align=center;verticalAlign=middle;whiteSpace=wrap;rounded=0;fontFamily=Architects Daughter;fontSource=https%3A%2F%2Ffonts.googleapis.com%2Fcss%3Ffamily%3DArchitects%2BDaughter;" vertex="1" parent="1">
          <mxGeometry x="340" y="800" width="60" height="30" as="geometry" />
        </mxCell>
        <mxCell id="gnvX_Jzxml1_0VbC4K96-10" value="modificarInteligencia()" style="text;html=1;align=center;verticalAlign=middle;whiteSpace=wrap;rounded=0;fontFamily=Architects Daughter;fontSource=https%3A%2F%2Ffonts.googleapis.com%2Fcss%3Ffamily%3DArchitects%2BDaughter;" vertex="1" parent="1">
          <mxGeometry x="340" y="820" width="60" height="30" as="geometry" />
        </mxCell>
        <mxCell id="gnvX_Jzxml1_0VbC4K96-11" value="modificarVelocidade()" style="text;html=1;align=center;verticalAlign=middle;whiteSpace=wrap;rounded=0;fontFamily=Architects Daughter;fontSource=https%3A%2F%2Ffonts.googleapis.com%2Fcss%3Ffamily%3DArchitects%2BDaughter;" vertex="1" parent="1">
          <mxGeometry x="340" y="840" width="60" height="30" as="geometry" />
        </mxCell>
        <mxCell id="gnvX_Jzxml1_0VbC4K96-12" value="modificarAlcance()" style="text;html=1;align=center;verticalAlign=middle;whiteSpace=wrap;rounded=0;fontFamily=Architects Daughter;fontSource=https%3A%2F%2Ffonts.googleapis.com%2Fcss%3Ffamily%3DArchitects%2BDaughter;" vertex="1" parent="1">
          <mxGeometry x="420" y="700" width="60" height="30" as="geometry" />
        </mxCell>
      </root>
    </mxGraphModel>
  </diagram>
</mxfile>
